<?xml version="1.0" ?><!DOCTYPE svg  PUBLIC '-//W3C//DTD SVG 1.1//EN'  'http://www.w3.org/Graphics/SVG/1.1/DTD/svg11.dtd'><svg height="352.701px" id="Layer_1" style="enable-background:new 0 0 374.086 352.701;" version="1.1" viewBox="0 0 374.086 352.701" width="374.086px" xml:space="preserve" xmlns="http://www.w3.org/2000/svg" xmlns:xlink="http://www.w3.org/1999/xlink"><g id="Layer_1_1_"><g><g><g><g><g><g><path d="M338.823,212.668         c0,0-0.055,0.528-0.156,1.317s-0.234,1.844-0.369,2.896c-0.133,1.053-0.268,2.105-0.367,2.896         c-0.088,0.793-0.199,1.312-0.199,1.312" style="fill:none;stroke:#000000;stroke-width:6.428;stroke-miterlimit:10;"/></g><g><path d="M334.592,236.051         c0,0-0.58,2.043-1.16,4.087c-0.543,2.055-1.25,4.059-1.25,4.059" style="fill:none;stroke:#000000;stroke-width:6.428;stroke-miterlimit:10;"/></g><g><path d="M326.725,258.472         c0,0-0.875,1.936-1.748,3.87c-0.416,0.978-0.949,1.899-1.299,2.615c-0.361,0.709-0.604,1.183-0.604,1.183" style="fill:none;stroke:#000000;stroke-width:6.428;stroke-miterlimit:10;"/></g><g><path d="M315.448,279.382         c0,0-0.287,0.446-0.717,1.117c-0.436,0.667-0.984,1.577-1.619,2.43c-1.23,1.731-2.461,3.463-2.461,3.463" style="fill:none;stroke:#000000;stroke-width:6.428;stroke-miterlimit:10;"/></g><g><path d="M301.056,298.287         c0,0-0.349,0.399-0.872,1c-0.551,0.575-1.283,1.345-2.016,2.112c-1.467,1.537-2.933,3.074-2.933,3.074" style="fill:none;stroke:#000000;stroke-width:6.428;stroke-miterlimit:10;"/></g><g><path d="M283.889,314.716         c0,0-1.67,1.312-3.34,2.625c-1.646,1.344-3.396,2.549-3.396,2.549" style="fill:none;stroke:#000000;stroke-width:6.428;stroke-miterlimit:10;"/></g><g><path d="M264.355,328.243         c0,0-1.842,1.059-3.683,2.117c-1.873,1-3.771,1.953-3.771,1.953" style="fill:none;stroke:#000000;stroke-width:6.428;stroke-miterlimit:10;"/></g><g><path d="M242.956,338.563         c0,0-0.494,0.194-1.234,0.486c-0.739,0.299-1.727,0.689-2.738,1.012c-2.012,0.681-4.023,1.36-4.023,1.36" style="fill:none;stroke:#000000;stroke-width:6.428;stroke-miterlimit:10;"/></g><g><path d="M220.202,345.401         c0,0-0.518,0.119-1.293,0.298c-0.779,0.163-1.828,0.334-2.873,0.524c-2.091,0.375-4.182,0.748-4.182,0.748" style="fill:none;stroke:#000000;stroke-width:6.428;stroke-miterlimit:10;"/></g><g><path d="M196.654,348.579         c0,0.001-0.528,0.062-1.325,0.068c-0.795,0.021-1.856,0.047-2.918,0.074c-2.123,0.055-4.246,0.107-4.246,0.107" style="fill:none;stroke:#000000;stroke-width:6.428;stroke-miterlimit:10;"/></g><g><path d="M172.896,348.065         c0,0-0.528-0.053-1.318-0.156c-0.79-0.102-1.844-0.234-2.897-0.368c-1.053-0.134-2.107-0.269-2.897-0.368         c-0.792-0.088-1.312-0.199-1.312-0.199" style="fill:none;stroke:#000000;stroke-width:6.428;stroke-miterlimit:10;"/></g><g><path d="M149.513,343.836         c0,0-2.043-0.58-4.086-1.16c-2.055-0.542-4.059-1.249-4.059-1.247" style="fill:none;stroke:#000000;stroke-width:6.428;stroke-miterlimit:10;"/></g><g><path d="M127.092,335.972         c0,0-1.935-0.875-3.871-1.75c-0.978-0.414-1.899-0.949-2.616-1.297c-0.709-0.363-1.181-0.605-1.181-0.605" style="fill:none;stroke:#000000;stroke-width:6.428;stroke-miterlimit:10;"/></g><g><path d="M106.181,324.692         c0,0-0.447-0.286-1.117-0.717c-0.667-0.435-1.577-0.983-2.43-1.617c-1.731-1.23-3.461-2.463-3.461-2.463" style="fill:none;stroke:#000000;stroke-width:6.428;stroke-miterlimit:10;"/></g><g><path d="M87.276,310.302c0,0-0.4-0.349-1-0.871         c-0.577-0.551-1.345-1.283-2.114-2.017c-1.537-1.465-3.074-2.931-3.074-2.931" style="fill:none;stroke:#000000;stroke-width:6.428;stroke-miterlimit:10;"/></g><g><path d="M70.846,293.136         c0,0-1.312-1.67-2.625-3.34c-1.344-1.646-2.548-3.396-2.549-3.396" style="fill:none;stroke:#000000;stroke-width:6.428;stroke-miterlimit:10;"/></g><g><path d="M57.319,273.603         c0,0-1.059-1.842-2.117-3.684c-1.001-1.872-1.953-3.771-1.953-3.771" style="fill:none;stroke:#000000;stroke-width:6.428;stroke-miterlimit:10;"/></g><g><path d="M46.999,252.202         c0,0-0.194-0.494-0.487-1.234c-0.297-0.738-0.689-1.727-1.01-2.738c-0.681-2.013-1.361-4.023-1.361-4.023" style="fill:none;stroke:#000000;stroke-width:6.428;stroke-miterlimit:10;"/></g><g><path d="M40.162,229.448         c0,0-0.12-0.518-0.299-1.293c-0.164-0.779-0.333-1.828-0.525-2.873c-0.374-2.092-0.747-4.182-0.747-4.182" style="fill:none;stroke:#000000;stroke-width:6.428;stroke-miterlimit:10;"/></g><g><path d="M36.984,205.899         c0,0-0.063-0.527-0.069-1.324c-0.021-0.797-0.047-1.857-0.074-2.919c-0.054-2.123-0.107-4.246-0.107-4.246" style="fill:none;stroke:#000000;stroke-width:6.428;stroke-miterlimit:10;"/></g><g><path d="M37.498,182.144         c0,0,0.052-0.528,0.156-1.318c0.1-0.79,0.234-1.844,0.368-2.896c0.134-1.054,0.268-2.106,0.368-2.896         c0.087-0.792,0.199-1.312,0.199-1.312" style="fill:none;stroke:#000000;stroke-width:6.428;stroke-miterlimit:10;"/></g><g><path d="M41.727,158.759         c0,0,0.58-2.043,1.16-4.086c0.542-2.055,1.249-4.058,1.249-4.059" style="fill:none;stroke:#000000;stroke-width:6.428;stroke-miterlimit:10;"/></g><g><path d="M49.592,136.339         c0,0,0.875-1.936,1.75-3.871c0.416-0.979,0.949-1.899,1.297-2.616c0.363-0.709,0.605-1.182,0.605-1.182" style="fill:none;stroke:#000000;stroke-width:6.428;stroke-miterlimit:10;"/></g><g><path d="M60.871,115.428         c0,0,0.286-0.447,0.716-1.117c0.435-0.667,0.984-1.577,1.618-2.43c1.23-1.731,2.461-3.461,2.461-3.461" style="fill:none;stroke:#000000;stroke-width:6.428;stroke-miterlimit:10;"/></g><g><path d="M75.262,96.522c0,0,0.349-0.4,0.872-1         c0.55-0.577,1.283-1.345,2.015-2.114c1.466-1.537,2.931-3.074,2.931-3.074" style="fill:none;stroke:#000000;stroke-width:6.428;stroke-miterlimit:10;"/></g><g><path d="M92.428,80.093         c0,0,1.669-1.312,3.339-2.625c1.646-1.345,3.397-2.549,3.396-2.549" style="fill:none;stroke:#000000;stroke-width:6.428;stroke-miterlimit:10;"/></g><g><path d="M111.962,66.566         c0,0,1.841-1.059,3.683-2.117c1.873-1.001,3.771-1.953,3.771-1.953" style="fill:none;stroke:#000000;stroke-width:6.428;stroke-miterlimit:10;"/></g><g><path d="M133.361,56.246         c0,0,0.494-0.195,1.235-0.487c0.739-0.297,1.726-0.689,2.739-1.01c2.012-0.681,4.023-1.361,4.023-1.361" style="fill:none;stroke:#000000;stroke-width:6.428;stroke-miterlimit:10;"/></g><g><path d="M156.116,49.409         c0,0,0.517-0.119,1.293-0.298c0.78-0.163,1.828-0.333,2.873-0.525c2.091-0.374,4.182-0.747,4.182-0.747" style="fill:none;stroke:#000000;stroke-width:6.428;stroke-miterlimit:10;"/></g><g><path d="M179.663,46.232         c0,0,0.528-0.063,1.325-0.069c0.796-0.02,1.858-0.047,2.919-0.074c2.123-0.054,4.247-0.107,4.247-0.107" style="fill:none;stroke:#000000;stroke-width:6.428;stroke-miterlimit:10;"/></g><g><path d="M203.422,46.747         c0,0,0.527,0.053,1.316,0.156c0.79,0.101,1.844,0.234,2.897,0.368c1.053,0.134,2.106,0.268,2.896,0.368         c0.793,0.087,1.312,0.199,1.312,0.199" style="fill:none;stroke:#000000;stroke-width:6.428;stroke-miterlimit:10;"/></g><g><path d="M226.805,50.977         c0,0,2.043,0.58,4.086,1.16c2.055,0.542,4.059,1.249,4.059,1.248" style="fill:none;stroke:#000000;stroke-width:6.428;stroke-miterlimit:10;"/></g><g><path d="M249.225,58.842         c0,0,1.936,0.875,3.871,1.75c0.979,0.416,1.898,0.949,2.615,1.297c0.709,0.363,1.182,0.605,1.182,0.605" style="fill:none;stroke:#000000;stroke-width:6.428;stroke-miterlimit:10;"/></g><g><path d="M270.135,70.12         c0,0,0.447,0.287,1.119,0.716c0.666,0.435,1.576,0.984,2.43,1.618c1.73,1.231,3.462,2.461,3.462,2.461" style="fill:none;stroke:#000000;stroke-width:6.428;stroke-miterlimit:10;"/></g><g><path d="M289.042,84.511         c0,0,0.4,0.349,1.002,0.872c0.576,0.55,1.345,1.282,2.113,2.015c1.536,1.465,3.073,2.931,3.073,2.931" style="fill:none;stroke:#000000;stroke-width:6.428;stroke-miterlimit:10;"/></g><g><path d="M305.473,101.676         c0,0,1.312,1.67,2.623,3.339c1.346,1.646,2.551,3.396,2.551,3.396" style="fill:none;stroke:#000000;stroke-width:6.428;stroke-miterlimit:10;"/></g><g><path d="M319,121.209         c0,0,1.059,1.841,2.117,3.682c1.002,1.872,1.953,3.771,1.953,3.771" style="fill:none;stroke:#000000;stroke-width:6.428;stroke-miterlimit:10;"/></g><g><path d="M329.323,142.608         c0,0,0.193,0.494,0.486,1.235c0.297,0.739,0.688,1.726,1.01,2.739c0.682,2.012,1.361,4.023,1.361,4.023" style="fill:none;stroke:#000000;stroke-width:6.428;stroke-miterlimit:10;"/></g><g><path d="M336.161,165.362         c0,0,0.119,0.518,0.297,1.293c0.164,0.779,0.334,1.828,0.525,2.873c0.373,2.09,0.748,4.181,0.748,4.181" style="fill:none;stroke:#000000;stroke-width:6.428;stroke-miterlimit:10;"/></g><g><path d="M339.338,188.909         c0,0,0.062,0.527,0.068,1.324c0.02,0.798,0.047,1.858,0.074,2.92c0.053,2.123,0.105,4.246,0.105,4.246" style="fill:none;stroke:#000000;stroke-width:6.428;stroke-miterlimit:10;"/></g></g></g></g><g><g><g><g><line style="fill:none;stroke:#000000;stroke-width:6.428;stroke-miterlimit:10;" x1="314.713" x2="307.266" y1="142.842" y2="145.947"/></g><g><line style="fill:none;stroke:#000000;stroke-width:6.428;stroke-miterlimit:10;" x1="293.858" x2="286.411" y1="151.536" y2="154.641"/></g><g><line style="fill:none;stroke:#000000;stroke-width:6.428;stroke-miterlimit:10;" x1="273.002" x2="265.554" y1="160.23" y2="163.335"/></g><g><line style="fill:none;stroke:#000000;stroke-width:6.428;stroke-miterlimit:10;" x1="252.147" x2="244.698" y1="168.924" y2="172.028"/></g><g><line style="fill:none;stroke:#000000;stroke-width:6.428;stroke-miterlimit:10;" x1="231.292" x2="223.842" y1="177.617" y2="180.724"/></g><g><line style="fill:none;stroke:#000000;stroke-width:6.428;stroke-miterlimit:10;" x1="210.436" x2="202.987" y1="186.312" y2="189.416"/></g></g></g></g><g><g><g><g><line style="fill:none;stroke:#000000;stroke-width:6.428;stroke-miterlimit:10;" x1="188.295" x2="188.372" y1="60.403" y2="68.415"/></g><g><line style="fill:none;stroke:#000000;stroke-width:6.428;stroke-miterlimit:10;" x1="188.508" x2="188.586" y1="82.837" y2="90.849"/></g><g><line style="fill:none;stroke:#000000;stroke-width:6.428;stroke-miterlimit:10;" x1="188.724" x2="188.799" y1="105.271" y2="113.282"/></g><g><line style="fill:none;stroke:#000000;stroke-width:6.428;stroke-miterlimit:10;" x1="188.938" x2="189.014" y1="127.704" y2="135.716"/></g><g><line style="fill:none;stroke:#000000;stroke-width:6.428;stroke-miterlimit:10;" x1="189.151" x2="189.229" y1="150.138" y2="158.149"/></g><g><line style="fill:none;stroke:#000000;stroke-width:6.428;stroke-miterlimit:10;" x1="189.366" x2="189.442" y1="172.571" y2="180.583"/></g></g></g></g><g><g><g><g><line style="fill:none;stroke:#000000;stroke-width:6.428;stroke-miterlimit:10;" x1="59.859" x2="67.581" y1="142.842" y2="145.947"/></g><g><line style="fill:none;stroke:#000000;stroke-width:6.428;stroke-miterlimit:10;" x1="81.479" x2="89.201" y1="151.536" y2="154.641"/></g><g><line style="fill:none;stroke:#000000;stroke-width:6.428;stroke-miterlimit:10;" x1="103.1" x2="110.821" y1="160.23" y2="163.335"/></g><g><line style="fill:none;stroke:#000000;stroke-width:6.428;stroke-miterlimit:10;" x1="124.72" x2="132.441" y1="168.924" y2="172.028"/></g><g><line style="fill:none;stroke:#000000;stroke-width:6.428;stroke-miterlimit:10;" x1="146.34" x2="154.062" y1="177.617" y2="180.724"/></g><g><line style="fill:none;stroke:#000000;stroke-width:6.428;stroke-miterlimit:10;" x1="167.96" x2="175.682" y1="186.312" y2="189.416"/></g></g></g></g><g><g><g><g><line style="fill:none;stroke:#000000;stroke-width:6.428;stroke-miterlimit:10;" x1="284.54" x2="278.888" y1="295.929" y2="289.921"/></g><g><line style="fill:none;stroke:#000000;stroke-width:6.428;stroke-miterlimit:10;" x1="268.713" x2="263.062" y1="279.106" y2="273.101"/></g><g><line style="fill:none;stroke:#000000;stroke-width:6.428;stroke-miterlimit:10;" x1="252.887" x2="247.234" y1="262.287" y2="256.278"/></g><g><line style="fill:none;stroke:#000000;stroke-width:6.428;stroke-miterlimit:10;" x1="237.061" x2="231.409" y1="245.467" y2="239.459"/></g><g><line style="fill:none;stroke:#000000;stroke-width:6.428;stroke-miterlimit:10;" x1="221.233" x2="215.581" y1="228.646" y2="222.64"/></g><g><line style="fill:none;stroke:#000000;stroke-width:6.428;stroke-miterlimit:10;" x1="205.407" x2="199.754" y1="211.825" y2="205.817"/></g></g></g></g><g><g><g><g><line style="fill:none;stroke:#000000;stroke-width:6.428;stroke-miterlimit:10;" x1="95.759" x2="101.343" y1="295.918" y2="289.911"/></g><g><line style="fill:none;stroke:#000000;stroke-width:6.428;stroke-miterlimit:10;" x1="111.396" x2="116.98" y1="279.101" y2="273.093"/></g><g><line style="fill:none;stroke:#000000;stroke-width:6.428;stroke-miterlimit:10;" x1="127.033" x2="132.617" y1="262.28" y2="256.272"/></g><g><line style="fill:none;stroke:#000000;stroke-width:6.428;stroke-miterlimit:10;" x1="142.669" x2="148.254" y1="245.462" y2="239.455"/></g><g><line style="fill:none;stroke:#000000;stroke-width:6.428;stroke-miterlimit:10;" x1="158.306" x2="163.891" y1="228.644" y2="222.636"/></g><g><line style="fill:none;stroke:#000000;stroke-width:6.428;stroke-miterlimit:10;" x1="173.943" x2="179.528" y1="211.824" y2="205.817"/></g></g></g></g></g><path d="M229.52,45.981c0,22.839-18.514,41.357-41.361,41.357c-22.84,0-41.357-18.518-41.357-41.357    c0-22.85,18.518-41.357,41.357-41.357C211.006,4.624,229.52,23.132,229.52,45.981z" style="fill:#FFFFFF;"/><path d="M336.073,306.752c0,22.849-18.514,41.367-41.363,41.367c-22.838,0-41.356-18.519-41.356-41.367    c0-22.839,18.519-41.356,41.356-41.356C317.559,265.396,336.073,283.913,336.073,306.752z" style="fill:#FFFFFF;"/><path d="M127.069,306.752c0,22.849-18.513,41.367-41.362,41.367c-22.839,0-41.362-18.519-41.362-41.367    c0-22.839,18.523-41.368,41.362-41.368C108.556,265.384,127.069,283.913,127.069,306.752z" style="fill:#FFFFFF;"/><path d="M87.323,137.274c0,22.85-18.523,41.368-41.362,41.368c-22.845,0-41.368-18.519-41.368-41.368    s18.523-41.368,41.368-41.368C68.8,95.907,87.323,114.425,87.323,137.274z" style="fill:#FFFFFF;"/><path d="M369.483,137.274c0,22.85-18.52,41.368-41.361,41.368c-22.846,0-41.357-18.519-41.357-41.368    s18.513-41.368,41.357-41.368C350.965,95.907,369.483,114.425,369.483,137.274z" style="fill:#FFFFFF;"/><g><g><path d="M340.555,307.337c0,23.164-18.779,41.943-41.947,41.943      c-23.164,0-41.943-18.779-41.943-41.943c0-23.163,18.779-41.941,41.943-41.941C321.776,265.396,340.555,284.174,340.555,307.337      z" id="instagram-circle-icon_2_" style="fill:#3E739D;"/></g><g><path d="M45.966,95.321c-23.168,0-41.948,18.769-41.948,41.932      c0,23.174,18.78,41.943,41.948,41.943c23.153,0,41.938-18.77,41.938-41.943C87.903,114.09,69.119,95.321,45.966,95.321z       M34.771,157.54h-9.207v-29.754h9.207V157.54z M30.121,123.894c-3.008,0-5.451-2.459-5.451-5.493      c0-3.034,2.443-5.492,5.451-5.492c3.008,0,5.445,2.458,5.445,5.492C35.566,121.435,33.129,123.894,30.121,123.894z       M69.281,157.54h-9.165c0,0,0-11.341,0-15.62c0-4.29-1.622-6.675-5.012-6.675c-3.693,0-5.607,2.48-5.607,6.675      c0,4.582,0,15.62,0,15.62h-8.841v-29.754h8.841v4.007c0,0,2.646-4.917,8.961-4.917c6.303,0,10.823,3.85,10.823,11.822      C69.281,146.67,69.281,157.54,69.281,157.54z" id="linkedin-circle-icon_2_" style="fill:#0375B6;"/></g><g><path d="M188.157,4.018c-23.163,0-41.942,18.79-41.942,41.953      c0,23.164,18.779,41.943,41.942,41.943c23.17,0,41.943-18.78,41.943-41.943C230.101,22.808,211.327,4.018,188.157,4.018z       M200.571,28.698c0,0-4.195,0-5.863,0c-2.066,0-2.502,0.847-2.502,2.982c0,1.789,0,5.179,0,5.179h8.365l-0.801,9.081h-7.564      v27.128h-10.823V46.055h-5.639v-9.196h5.639c0,0,0-1.318,0-7.24c0-6.79,3.63-10.347,11.686-10.347c1.323,0,7.502,0,7.502,0      V28.698L200.571,28.698z" id="facebook-circle-icon_2_" style="fill:#3C5A99;"/></g><g><path d="M328.122,95.321c-23.158,0-41.938,18.769-41.938,41.932      c0,23.174,18.778,41.943,41.938,41.943c23.168,0,41.947-18.77,41.947-41.943C370.069,114.09,351.29,95.321,328.122,95.321z       M349.217,130.024c0.613,13.695-9.588,28.938-27.65,28.938c-5.486,0-10.604-1.601-14.908-4.363      c5.158,0.607,10.314-0.826,14.4-4.028c-4.258-0.083-7.852-2.887-9.092-6.758c1.527,0.293,3.029,0.209,4.395-0.167      c-4.678-0.931-7.908-5.158-7.801-9.657c1.314,0.722,2.811,1.161,4.406,1.214c-4.338-2.888-5.562-8.621-3.008-12.994      c4.797,5.89,11.963,9.771,20.051,10.169c-1.418-6.078,3.201-11.937,9.479-11.937c2.793,0,5.32,1.182,7.1,3.065      c2.211-0.439,4.293-1.245,6.172-2.365c-0.723,2.281-2.27,4.185-4.273,5.388c1.967-0.23,3.84-0.764,5.588-1.527      C352.77,126.948,351.118,128.653,349.217,130.024z" id="twitter-4-icon_2_" style="fill:#4DC8F1;"/></g><g><path d="M89.175,322.017c0,4.144-3.358,7.387-10.326,7.387      c-5.445,0-9.39-3.452-9.39-7.596c0-4.05,4.619-7.564,10.075-7.492C85.576,314.315,89.175,318.071,89.175,322.017z       M127.869,306.741c0,23.277-18.874,42.162-42.163,42.162c-23.278,0-42.152-18.885-42.152-42.162      c0-23.278,18.874-42.152,42.152-42.152C108.995,264.589,127.869,283.463,127.869,306.741z M93.877,321.545      c0-3.829-1.438-6.329-5.754-9.562c-4.383-3.201-5.456-5.002-1.271-8.233c2.359-1.831,4.012-4.258,4.012-7.261      c0-3.266-1.339-6.235-3.85-7.67h3.557l3.034-3.18c0,0-11.43,0-13.569,0c-8.469,0-12.623,5.073-12.623,10.66      c0,5.702,3.918,10.201,11.561,10.201c-1.182,2.385-0.711,4.604,1.229,6.184c-13.062,0-15.85,5.732-15.85,10.147      c0,5.712,6.57,9.112,14.448,9.112C89.588,331.944,93.877,326.231,93.877,321.545z M111.569,292.522h-6.262v-6.268h-3.128v6.268      h-6.261v3.129h6.261v6.256h3.128v-6.256h6.262V292.522z M85.408,296.696c-0.627-4.801-3.761-8.734-7.412-8.86      c-3.657-0.104-6.121,3.578-5.487,8.38c0.643,4.803,4.117,8.15,7.768,8.266C83.938,304.586,86.042,301.499,85.408,296.696z" id="google-plus-circle-icon_2_" style="fill:#D32452;"/></g><path d="M283.301,286.748h30.611c2.908,0,5.289,2.375,5.289,5.282v30.623c0,2.897-2.381,5.272-5.289,5.272     h-30.611c-2.914,0-5.289-2.375-5.289-5.272V292.03C278.012,289.123,280.387,286.748,283.301,286.748z M308.018,291.31     c-1.02,0-1.852,0.849-1.852,1.862v4.446c0,1.015,0.832,1.852,1.852,1.852h4.65c1.025,0,1.857-0.837,1.857-1.852v-4.446     c0-1.015-0.832-1.862-1.857-1.862H308.018z M314.545,304.167h-3.625c0.346,1.12,0.529,2.302,0.529,3.525     c0,6.854-5.734,12.418-12.802,12.418c-7.065,0-12.806-5.564-12.806-12.418c0-1.225,0.184-2.405,0.527-3.525h-3.781v17.398     c0,0.899,0.738,1.633,1.633,1.633h28.688c0.898,0,1.637-0.732,1.637-1.633V304.167z M298.648,299.239     c-4.565,0-8.271,3.589-8.271,8.015c0,4.425,3.703,8.015,8.271,8.015s8.271-3.59,8.271-8.015     C306.918,302.828,303.215,299.239,298.648,299.239z" style="fill:#FFFFFF;"/></g><g><path d="M257.631,203.176c0,9.123-7.077,16.511-15.818,16.511H133.179     c-8.736,0-15.813-7.388-15.813-16.511V188.33c0-9.123,7.078-16.51,15.813-16.51h108.634c8.741,0,15.818,7.387,15.818,16.51     V203.176L257.631,203.176z" style="fill:#FFFFFF;"/><path d="M238.538,170.084H224c-8.642-11.979-22.566-19.125-37.26-19.125c-15.542,0-29.891,7.773-38.428,20.778h-12.298     c-11.807,0-21.406,9.604-21.406,21.407v7.531c0,11.791,9.599,21.396,21.406,21.396h12.298     c8.516,13.025,22.886,20.787,38.428,20.787c16.002,0,31.067-8.588,39.358-22.431h12.439c11.791,0,21.396-9.604,21.396-21.405     v-7.532C259.934,179.688,250.329,170.084,238.538,170.084L238.538,170.084z M175.242,182.796l-8.124,28.635h-4.3l-3.631-15.014     c-0.79-3.243-1.292-5.639-1.637-7.848c-0.523,2.554-1.114,4.98-1.925,7.857l-4.112,15.004h-4.295l-0.052-0.221l-7.313-28.771     h4.499l0.052,0.211l3.384,14.385c0.722,3.076,1.371,6.037,1.852,8.517c0.497-2.563,1.266-5.493,2.087-8.567l3.85-14.543h4.3     l0.052,0.209l3.458,14.428c0.659,2.794,1.324,5.723,1.763,8.37c0.528-2.511,1.172-5.105,1.862-7.826l0.146-0.638l3.803-14.543     h4.373L175.242,182.796z M181.718,211.431h-4.3v-21.008h4.3V211.431z M181.457,186.781c-0.481,0.503-1.182,0.784-1.977,0.784     c-1.439,0-2.511-1.108-2.511-2.573c0-1.496,1.109-2.615,2.589-2.615c1.491,0,2.579,1.088,2.579,2.615     C182.158,185.683,181.912,186.312,181.457,186.781L181.457,186.781z M257.631,199.022c0,10.535-8.562,19.104-19.094,19.104     h-30.843c-7.747,0-14.562,0-18.114-0.178c3.562-1.686,9.18-4.446,9.18-9.458v-17.001c0-10.524,8.56-19.104,19.105-19.104h20.672     c10.53,0,19.094,8.579,19.094,19.104V199.022z"/><path d="M208.978,210.803h4.097V198.51h10.283v-3.483h-10.283v-8.453h11.131v-3.536h-15.228V210.803z"/><rect height="20.088" width="4.138" x="227.459" y="190.716"/><path d="M229.52,182.994c-1.417,0-2.506,1.077-2.506,2.521c0,1.402,1.041,2.469,2.438,2.469c0.76,0,1.428-0.271,1.903-0.741     c0.431-0.461,0.653-1.067,0.634-1.728C231.989,184.062,230.959,182.994,229.52,182.994L229.52,182.994z"/></g><path d="M230.682,45.971    c0,23.164-18.78,41.943-41.943,41.943c-23.158,0-41.938-18.78-41.938-41.943c0-23.163,18.779-41.953,41.938-41.953    C211.901,4.018,230.682,22.808,230.682,45.971z" style="fill:none;stroke:#000000;stroke-width:8.035;stroke-miterlimit:10;"/><path d="M370.069,137.253    c0,23.164-18.779,41.943-41.947,41.943c-23.158,0-41.938-18.779-41.938-41.943c0-23.153,18.778-41.932,41.938-41.932    C351.29,95.321,370.069,114.101,370.069,137.253z" style="fill:none;stroke:#000000;stroke-width:8.035;stroke-miterlimit:10;"/><path d="M87.903,137.253    c0,23.164-18.785,41.943-41.938,41.943c-23.168,0-41.948-18.779-41.948-41.943c0-23.153,18.78-41.932,41.948-41.932    C69.119,95.321,87.903,114.101,87.903,137.253z" style="fill:none;stroke:#000000;stroke-width:8.035;stroke-miterlimit:10;"/><path d="M127.649,306.741    c0,23.162-18.779,41.941-41.943,41.941c-23.158,0-41.938-18.779-41.938-41.941c0-23.163,18.78-41.943,41.938-41.943    C108.87,264.798,127.649,283.578,127.649,306.741z" style="fill:none;stroke:#000000;stroke-width:8.035;stroke-miterlimit:10;"/><path d="M340.549,306.741    c0,23.162-18.785,41.941-41.941,41.941c-23.164,0-41.943-18.779-41.943-41.941c0-23.163,18.779-41.943,41.943-41.943    C321.764,264.798,340.549,283.578,340.549,306.741z" style="fill:none;stroke:#000000;stroke-width:8.035;stroke-miterlimit:10;"/></g></g><g id="Layer_1_2_"/></svg>