<svg id="Layer_5" enable-background="new 0 0 64 64" height="512" viewBox="0 0 64 64" width="512" xmlns="http://www.w3.org/2000/svg"><g><path d="m9 25.62v-1.206l-.293-.293c-1.101-1.1-1.707-2.564-1.707-4.121s.606-3.021 1.707-4.121l.293-.293v-.586c0-2.206 1.794-4 4-4h.017c.043-.957.423-1.853 1.104-2.535l.173-.173 1.412 1.416-.172.171c-.344.345-.534.804-.534 1.292 0 1.009.82 1.829 1.828 1.829h5.172c1.654 0 3-1.346 3-3s-1.346-3-3-3h-9.438c-5.273 0-9.562 4.289-9.562 9.562v.192c0 3.953 2.413 7.429 6 8.866z"/><path d="m11.345 36.873 1.335-1.779-2.891-2.891z"/><path d="m22 25c.645-.859 1-1.925 1-3v-7.101c-.323.066-.658.101-1 .101h-5.172c-1.445 0-2.691-.815-3.342-2h-.486c-1.103 0-2 .897-2 2v1.414l-.879.879c-.723.723-1.121 1.685-1.121 2.707s.398 1.984 1.121 2.707l.879.879v7l3 3 3-3v-1.586h-.764c-1.76 0-3.343-.978-4.131-2.553l1.789-.895c.447.893 1.344 1.448 2.342 1.448h1.764c1.565 0 3.061-.748 4-2zm-1-8c.552 0 1 .448 1 1s-.448 1-1 1-1-.448-1-1 .448-1 1-1zm-6 0c.552 0 1 .448 1 1s-.448 1-1 1-1-.448-1-1 .448-1 1-1zm3 8c-1.615 0-3.067-.897-3.789-2.342l-.105-.21 1.789-.895.105.211c.381.762 1.147 1.236 2 1.236s1.619-.474 2-1.236l.105-.211 1.789.895-.105.211c-.722 1.444-2.174 2.341-3.789 2.341z"/><path d="m34 49c-.552 0-1 .449-1 1v7h8v-7c0-.551-.448-1-1-1z"/><path d="m16.655 36.873 1.556-4.67-2.891 2.891z"/><path d="m22 57c0-1.103-.897-2-2-2h-1v-1.879c0-.618-.503-1.121-1.121-1.121-.295 0-.584.12-.793.328l-1.672 1.672h-.586c-2.092 0-4.058-.814-5.535-2.293-1.037-1.037-1.738-2.316-2.07-3.707h-4.103c.358 2.752 1.592 5.299 3.587 7.293 1.577 1.577 3.533 2.696 5.68 3.27.911-.958 2.19-1.563 3.613-1.563z"/><path d="m23 36v12c0 1.654 1.346 3 3 3h5v-1c0-1.654 1.346-3 3-3h6c1.654 0 3 1.346 3 3v1h5c1.654 0 3-1.346 3-3v-12c0-1.654-1.346-3-3-3h-22c-1.654 0-3 1.346-3 3z"/><path d="m7 38h2v8.171c0 1.557.606 3.021 1.707 4.122 1.044 1.044 2.416 1.644 3.884 1.702l1.081-1.081c.581-.581 1.385-.914 2.207-.914 1.721 0 3.121 1.4 3.121 3.121v.005c1.724.445 3 2.013 3 3.874h3v-4h-1c-2.757 0-5-2.243-5-5v-12c0-.972.291-1.873.773-2.642-.495-.316-1.03-.567-1.588-.751l-2.84 8.52-3.345-4.46-3.345 4.46-2.835-8.507c-2.855.938-4.82 3.581-4.82 6.626v6.754h4zm6 1h2v2h-2zm0 4h2v2h-2zm0 4h2v2h-2z"/><path d="m58 59h-42c-1.304 0-2.416.836-2.829 2h47.658c-.413-1.164-1.525-2-2.829-2z"/><path d="m32 21h3.414l3.879 3.879c.239.238.707.045.707-.293v-3.586h16c.552 0 1-.449 1-1v-9h-26v9c0 .551.448 1 1 1zm15-8h8v2h-8zm-4 0h2v2h-2zm0 4h12v2h-12zm-9-3h6v4h-6z"/><path d="m57 4c0-.551-.448-1-1-1h-24c-.552 0-1 .449-1 1v5h26zm-22 3h-2v-2h2zm4 0h-2v-2h2zm4 0h-2v-2h2z"/></g></svg>