<svg id="Layer_5" enable-background="new 0 0 64 64" height="512" viewBox="0 0 64 64" width="512" xmlns="http://www.w3.org/2000/svg"><path d="m19 36c0-1.641-.806-3.088-2.031-4 1.225-.912 2.031-2.359 2.031-4 0-2.757-2.243-5-5-5h-6v2h6c1.654 0 3 1.346 3 3s-1.346 3-3 3h-6v2h6c1.654 0 3 1.346 3 3s-1.346 3-3 3h-6v2h6c2.757 0 5-2.243 5-5z"/><path d="m33 32c0-4.962-4.038-9-9-9h-3v18h3c4.962 0 9-4.037 9-9zm-9 7h-1v-14h1c3.86 0 7 3.14 7 7 0 3.859-3.14 7-7 7z"/><path d="m1 43h2v2h-2z"/><path d="m5 43h2v2h-2z"/><path d="m9 43h2v2h-2z"/><path d="m39 32c0-7.168-5.832-13-13-13h-13v2h13c6.065 0 11 4.935 11 11s-4.935 11-11 11h-13v2h13c7.168 0 13-5.832 13-13z"/><path d="m9 19h2v2h-2z"/><path d="m5 19h2v2h-2z"/><path d="m1 19h2v2h-2z"/><path d="m50 3h-30c-1.654 0-3 1.346-3 3v11h9c8.271 0 15 6.729 15 15s-6.729 15-15 15h-5v2h-2v-2h-2v11c0 1.654 1.346 3 3 3h30c1.654 0 3-1.346 3-3v-52c0-1.654-1.346-3-3-3zm-18 4h-11v4h-2v-4c0-1.103.897-2 2-2h11zm4 0h-2v-2h2zm-15 50h-2v-2h2zm0-4h-2v-2h2zm30 4c0 1.103-.897 2-2 2h-4v-2h4v-10h2zm0-12h-2v-2h2zm0-4h-2v-2h2z"/><path d="m58 3h-4.026c.635.838 1.026 1.87 1.026 3v52c0 1.13-.391 2.162-1.026 3h4.026c1.654 0 3-1.346 3-3v-52c0-1.654-1.346-3-3-3z"/></svg>