<svg height="448pt" viewBox="0 0 448 448" width="448pt" xmlns="http://www.w3.org/2000/svg"><path d="m240 184v-144c0-4.417969 3.582031-8 8-8h152v-16c0-8.835938-7.164062-16-16-16h-320c-8.835938 0-16 7.164062-16 16v96h168c4.417969 0 8 3.582031 8 8v128c0 4.417969-3.582031 8-8 8h-168v144h312c4.417969 0 8 3.582031 8 8v24c0 8.835938 7.164062 16 16 16s16-7.164062 16-16v-64h-232c-1.578125-.003906-3.125-.46875-4.441406-1.34375l-48-32c-2.222656-1.484375-3.558594-3.980469-3.558594-6.65625s1.335938-5.171875 3.558594-6.65625l48-32c1.316406-.875 2.863281-1.339844 4.441406-1.34375h232v-96h-152c-4.417969 0-8-3.582031-8-8zm-176 120h32v16h-32zm0 32h32v16h-32zm64 32v16h-64v-16zm8-80h-72v-16h72zm-8-272h16v16h-16zm-32 0h16v16h-16zm-32 0h16v16h-16zm96 80h-96v-16h96zm64 0h-48v-16h48zm0-32h-160v-16h160zm88 200h-72v-16h72zm72 0h-56v-16h56zm-32-48h32v16h-32zm-16 16h-96v-16h96zm0 0"/><path d="m176 336h192v16h-192zm0 0"/><path d="m176 304h192v16h-192zm0 0"/><path d="m352 416h-352v16c0 8.835938 7.164062 16 16 16h340.296875c-2.824219-4.859375-4.304687-10.378906-4.296875-16zm0 0"/><path d="m208 128h-208v112h208zm-192 16h32v16h-32zm0 32h104v16h-104zm136 48h-136v-16h136zm40-32h-56v-16h56zm0-32h-128v-16h128zm0 0"/><path d="m384 304h16v48h-16zm0 0"/><path d="m256 48v97.601562l51.761719-32.355468c2.496093-1.558594 5.648437-1.621094 8.207031-.15625l51.933594 29.671875 36-21.601563c2.652344-1.59375 5.988281-1.515625 8.5625.199219l35.535156 23.695313v-97.054688zm116 64c-11.046875 0-20-8.953125-20-20s8.953125-20 20-20 20 8.953125 20 20-8.953125 20-20 20zm0 0"/><path d="m372.121094 158.855469c-2.484375 1.492187-5.574219 1.523437-8.089844.089843l-51.847656-29.601562-56.183594 35.097656v11.558594h192v-11.71875l-40.222656-26.816406zm0 0"/><path d="m160 310.945312-25.574219 17.054688 25.574219 17.054688zm0 0"/><path d="m424 304h-8v48h8c13.253906 0 24-10.746094 24-24s-10.746094-24-24-24zm0 0"/></svg>