<?xml version="1.0" encoding="UTF-8"?>
<svg xmlns="http://www.w3.org/2000/svg" viewBox="0 0 64 64" width="512" height="512"><g id="reward-pencil-document-copywriting-writing"><path d="M28,22.44a3.075,3.075,0,0,0-.605.279,3.515,3.515,0,0,1-1.39.494v1.918l1.445-.963a1,1,0,0,1,1.11,0L30,25.131V23.218a3.49,3.49,0,0,1-1.39-.5A2.877,2.877,0,0,0,28,22.44Z"/><circle cx="28" cy="15" r="2"/><path d="M21.879,15.41a3.186,3.186,0,0,1,.946,1.272,3.28,3.28,0,0,1-.013,1.622,5.091,5.091,0,0,0-.079.55c.1.005.363.04.531.063A3.245,3.245,0,0,1,24.8,19.4a3.217,3.217,0,0,1,.928,1.306,5.322,5.322,0,0,0,.25.481c.133-.054.323-.157.461-.231A3.309,3.309,0,0,1,28,20.44a3.309,3.309,0,0,1,1.558.518,5.036,5.036,0,0,0,.484.24c.04-.1.153-.337.227-.49A3.217,3.217,0,0,1,31.2,19.4a3.244,3.244,0,0,1,1.538-.485c.154-.021.385-.052.53-.089a5.237,5.237,0,0,0-.078-.524,3.28,3.28,0,0,1-.012-1.622,3.186,3.186,0,0,1,.946-1.272,4.935,4.935,0,0,0,.4-.41,4.935,4.935,0,0,0-.4-.41,3.186,3.186,0,0,1-.946-1.272,3.292,3.292,0,0,1,.012-1.622,4.867,4.867,0,0,0,.08-.55c-.1-.005-.363-.04-.531-.063A3.245,3.245,0,0,1,31.2,10.6a3.217,3.217,0,0,1-.928-1.306,5.322,5.322,0,0,0-.25-.481c-.133.054-.323.157-.461.231A3.309,3.309,0,0,1,28,9.56a3.309,3.309,0,0,1-1.558-.518,5.036,5.036,0,0,0-.484-.24c-.04.1-.153.337-.227.49A3.217,3.217,0,0,1,24.8,10.6a3.244,3.244,0,0,1-1.538.485c-.154.021-.385.052-.53.089.009.146.049.365.077.524a3.268,3.268,0,0,1,.013,1.622,3.186,3.186,0,0,1-.946,1.272,4.935,4.935,0,0,0-.4.41A4.935,4.935,0,0,0,21.879,15.41ZM28,11a4,4,0,1,1-4,4A4,4,0,0,1,28,11Z"/><path d="M50,14a1,1,0,0,1-1-1V4H17V60H59V14ZM39,17h4v2H39ZM20.5,13.14a2.954,2.954,0,0,0,.426-.455,3.592,3.592,0,0,0-.083-.633,2.577,2.577,0,0,1,.23-2.085A2.632,2.632,0,0,1,23,9.1a3,3,0,0,0,.636-.126,3.687,3.687,0,0,0,.292-.545,2.635,2.635,0,0,1,1.427-1.573,2.564,2.564,0,0,1,2.036.424,2.877,2.877,0,0,0,.615.279,3.075,3.075,0,0,0,.605-.279,2.556,2.556,0,0,1,2.036-.424A2.635,2.635,0,0,1,32.073,8.43a2.948,2.948,0,0,0,.311.559A3.741,3.741,0,0,0,33,9.1a2.629,2.629,0,0,1,1.923.867,2.577,2.577,0,0,1,.23,2.085,2.886,2.886,0,0,0-.075.655,3.767,3.767,0,0,0,.418.432A2.652,2.652,0,0,1,36.56,15,2.652,2.652,0,0,1,35.5,16.86a2.954,2.954,0,0,0-.426.455,3.592,3.592,0,0,0,.083.633,2.577,2.577,0,0,1-.23,2.085A2.632,2.632,0,0,1,33,20.9a3,3,0,0,0-.636.126,3.687,3.687,0,0,0-.292.545c-.022.046-.05.1-.073.146V27a1,1,0,0,1-1.555.832L28,26.2l-2.445,1.63A1,1,0,0,1,24,27V21.716c-.023-.048-.051-.1-.073-.146a2.948,2.948,0,0,0-.311-.559A3.741,3.741,0,0,0,23,20.9a2.629,2.629,0,0,1-1.923-.867,2.577,2.577,0,0,1-.23-2.085,2.886,2.886,0,0,0,.075-.655,3.767,3.767,0,0,0-.418-.432A2.652,2.652,0,0,1,19.44,15,2.652,2.652,0,0,1,20.5,13.14ZM31,33v2H20V33ZM20,43h4v2H20ZM56,55H20V53H56Zm0-5H20V48H56ZM26,45V43h7v2Zm30,0H35V43H56Zm0-5H20V38H56Zm0-5H33V33H56Zm0-5H37V28H56Zm0-6H37V22H56Zm0-5H45V17H56Z"/><polygon points="51 5.41 51 12 57.59 12 51 5.41"/><path d="M5,51.59l.29-.3a1.008,1.008,0,0,1,1.42,0L8,52.59l1.29-1.3a1.008,1.008,0,0,1,1.42,0l.29.3V36H5Z"/><path d="M8.71,54.71a1.014,1.014,0,0,1-1.42,0L6,53.41l-.71.72L8,58.2l2.71-4.07L10,53.41Z"/><rect x="5" y="32" width="6" height="2"/><path d="M8,25a3.009,3.009,0,0,0-3,3v2h6V28A3.009,3.009,0,0,0,8,25Z"/></g></svg>
